<svg xmlns="http://www.w3.org/2000/svg" viewBox="0 0 769.84 769.83"><g id="Capa_2" data-name="Capa 2"><g id="Capa_1-2" data-name="Capa 1"><path d="M748.71,646.64,572.06,470A340.32,340.32,0,0,1,470,572.08l176.62,176.6a72.16,72.16,0,0,0,102.07-102Z" fill="#848484"/><path d="M577.37,288.7C577.37,129.25,448.1,0,288.69,0S0,129.25,0,288.7,129.27,577.38,288.69,577.38,577.37,448.12,577.37,288.7ZM288.69,505.21c-119.39,0-216.52-97.14-216.52-216.51S169.3,72.16,288.69,72.16,505.22,169.31,505.22,288.7,408.09,505.21,288.69,505.21Z" fill="#848484"/></g></g></svg>