<svg xmlns="http://www.w3.org/2000/svg" viewBox="0 0 640.78 840.82"><g id="Capa_2" data-name="Capa 2"><g id="Capa_1-2" data-name="Capa 1"><path d="M421.79,346.07c52-33.45,86.57-91.69,86.57-158.12C508.36,84.13,424.2,0,320.41,0a187.94,187.94,0,0,0-188,188c0,66.43,34.53,124.67,86.58,158.12C96.44,357,0,460.3,0,585.71V780.79l.5,3.09L14,788.06c126.63,39.55,236.66,52.76,327.21,52.76,176.87,0,279.39-50.46,285.74-53.64l12.56-6.39h1.32V585.71C640.78,460.33,544.38,357.07,421.79,346.07Z" fill="#b1adde"/></g></g></svg>